<svg width="293" height="219" viewBox="0 0 293 219" fill="none" xmlns="http://www.w3.org/2000/svg">
<g clip-path="url(#clip0)">
<rect width="34.7234" height="34.7146" rx="17.3573" transform="matrix(0.731804 -0.681516 0.684261 0.729237 32.131 167.685)" fill="#2F91FA"/>
<rect width="34.7234" height="34.7146" rx="17.3573" transform="matrix(0.731804 -0.681516 0.684261 0.729237 208.835 167.685)" fill="#2F91FA"/>
<rect width="34.7234" height="34.7146" rx="17.3573" transform="matrix(0.731804 -0.681516 0.684261 0.729237 118.396 134.417)" fill="#2F91FA"/>
<path d="M82 66.4157H60.5714V86.3007H53.4286V66.4157H32V59.7873H53.4286V39.9023H60.5714V59.7873H82V66.4157Z" fill="#FF0000"/>
<path d="M146.994 52.544V68H143.949V61.721H137.04V68H133.995V52.544H137.04V58.781H143.949V52.544H146.994ZM149.778 63.296C149.778 62.358 149.995 61.518 150.429 60.776C150.877 60.034 151.5 59.453 152.298 59.033C153.096 58.599 154.013 58.382 155.049 58.382C156.099 58.382 157.009 58.599 157.779 59.033C158.549 59.453 159.137 60.034 159.543 60.776C159.963 61.518 160.173 62.358 160.173 63.296C160.173 64.234 159.963 65.081 159.543 65.837C159.137 66.579 158.549 67.167 157.779 67.601C157.009 68.035 156.085 68.252 155.007 68.252C153.999 68.252 153.096 68.056 152.298 67.664C151.514 67.272 150.898 66.705 150.45 65.963C150.002 65.221 149.778 64.332 149.778 63.296ZM152.739 63.317C152.739 64.045 152.949 64.654 153.369 65.144C153.789 65.62 154.321 65.858 154.965 65.858C155.651 65.858 156.197 65.62 156.603 65.144C157.009 64.654 157.212 64.045 157.212 63.317C157.212 62.589 157.009 61.987 156.603 61.511C156.197 61.021 155.651 60.776 154.965 60.776C154.321 60.776 153.789 61.021 153.369 61.511C152.949 61.987 152.739 62.589 152.739 63.317ZM162.49 51.431H165.43V68H162.49V51.431ZM167.743 63.296C167.743 62.358 167.96 61.518 168.394 60.776C168.842 60.034 169.465 59.453 170.263 59.033C171.061 58.599 171.978 58.382 173.014 58.382C174.064 58.382 174.974 58.599 175.744 59.033C176.514 59.453 177.102 60.034 177.508 60.776C177.928 61.518 178.138 62.358 178.138 63.296C178.138 64.234 177.928 65.081 177.508 65.837C177.102 66.579 176.514 67.167 175.744 67.601C174.974 68.035 174.05 68.252 172.972 68.252C171.964 68.252 171.061 68.056 170.263 67.664C169.479 67.272 168.863 66.705 168.415 65.963C167.967 65.221 167.743 64.332 167.743 63.296ZM170.704 63.317C170.704 64.045 170.914 64.654 171.334 65.144C171.754 65.62 172.286 65.858 172.93 65.858C173.616 65.858 174.162 65.62 174.568 65.144C174.974 64.654 175.177 64.045 175.177 63.317C175.177 62.589 174.974 61.987 174.568 61.511C174.162 61.021 173.616 60.776 172.93 60.776C172.286 60.776 171.754 61.021 171.334 61.511C170.914 61.987 170.704 62.589 170.704 63.317ZM187.283 68V51.431H190.16V60.272C190.482 59.712 190.937 59.257 191.525 58.907C192.113 58.557 192.827 58.382 193.667 58.382C194.535 58.382 195.256 58.641 195.83 59.159C196.418 59.663 196.719 60.321 196.733 61.133V68H193.793V62.225C193.779 61.819 193.667 61.497 193.457 61.259C193.261 61.007 192.925 60.881 192.449 60.881C191.763 60.881 191.217 61.203 190.811 61.847C190.419 62.477 190.223 63.282 190.223 64.262V68H187.283ZM204.267 68.252C203.147 68.252 202.195 68.042 201.411 67.622C200.641 67.202 200.053 66.621 199.647 65.879C199.241 65.137 199.038 64.283 199.038 63.317C199.038 62.393 199.276 61.56 199.752 60.818C200.228 60.076 200.865 59.488 201.663 59.054C202.461 58.606 203.35 58.382 204.33 58.382C205.646 58.382 206.724 58.767 207.564 59.537C208.418 60.293 208.971 61.392 209.223 62.834L202.503 64.976C202.951 65.494 203.56 65.753 204.33 65.753C204.652 65.753 204.96 65.697 205.254 65.585C205.562 65.473 205.863 65.326 206.157 65.144L207.459 67.328C206.969 67.608 206.437 67.832 205.863 68C205.303 68.168 204.771 68.252 204.267 68.252ZM201.936 63.149C201.936 63.219 201.936 63.282 201.936 63.338L205.968 61.973C205.842 61.623 205.639 61.322 205.359 61.07C205.079 60.804 204.659 60.671 204.099 60.671C203.441 60.671 202.916 60.895 202.524 61.343C202.132 61.791 201.936 62.393 201.936 63.149ZM215.224 68.252C214.37 68.252 213.593 68.084 212.893 67.748C212.207 67.398 211.661 66.866 211.255 66.152C210.849 65.438 210.646 64.528 210.646 63.422C210.646 62.386 210.856 61.49 211.276 60.734C211.696 59.978 212.249 59.397 212.935 58.991C213.621 58.571 214.349 58.361 215.119 58.361C216.029 58.361 216.715 58.508 217.177 58.802C217.653 59.096 218.031 59.418 218.311 59.768L218.5 58.823H221.23V68H218.29V66.866C218.15 67.006 217.94 67.188 217.66 67.412C217.394 67.636 217.058 67.832 216.652 68C216.246 68.168 215.77 68.252 215.224 68.252ZM216.064 65.858C217.086 65.858 217.828 65.396 218.29 64.472V62.225C218.122 61.777 217.828 61.42 217.408 61.154C217.002 60.888 216.519 60.755 215.959 60.755C215.329 60.755 214.783 60.993 214.321 61.469C213.859 61.931 213.628 62.533 213.628 63.275C213.628 63.765 213.74 64.206 213.964 64.598C214.188 64.99 214.482 65.298 214.846 65.522C215.224 65.746 215.63 65.858 216.064 65.858ZM224.259 51.431H227.199V68H224.259V51.431ZM231.088 54.791H234.028V58.781H236.254V61.07H234.028V68H231.088V61.07H229.66V58.781H231.088V54.791ZM238.491 68V51.431H241.368V60.272C241.69 59.712 242.145 59.257 242.733 58.907C243.321 58.557 244.035 58.382 244.875 58.382C245.743 58.382 246.464 58.641 247.038 59.159C247.626 59.663 247.927 60.321 247.941 61.133V68H245.001V62.225C244.987 61.819 244.875 61.497 244.665 61.259C244.469 61.007 244.133 60.881 243.657 60.881C242.971 60.881 242.425 61.203 242.019 61.847C241.627 62.477 241.431 63.282 241.431 64.262V68H238.491ZM136.494 89.189C135.738 89.189 135.031 89.056 134.373 88.79C133.729 88.524 133.183 88.153 132.735 87.677L133.953 86.06C134.401 86.466 134.814 86.76 135.192 86.942C135.584 87.11 135.934 87.194 136.242 87.194C136.606 87.194 136.907 87.138 137.145 87.026C137.383 86.914 137.502 86.732 137.502 86.48C137.502 86.242 137.404 86.053 137.208 85.913C137.026 85.773 136.788 85.661 136.494 85.577C136.2 85.479 135.885 85.381 135.549 85.283C134.709 85.017 134.1 84.632 133.722 84.128C133.358 83.61 133.176 83.05 133.176 82.448C133.176 81.986 133.295 81.524 133.533 81.062C133.785 80.586 134.177 80.194 134.709 79.886C135.255 79.564 135.955 79.403 136.809 79.403C137.579 79.403 138.23 79.48 138.762 79.634C139.294 79.788 139.798 80.04 140.274 80.39L139.161 82.112C138.895 81.902 138.594 81.727 138.258 81.587C137.936 81.433 137.635 81.349 137.355 81.335C136.977 81.321 136.683 81.391 136.473 81.545C136.263 81.685 136.158 81.853 136.158 82.049C136.144 82.315 136.242 82.525 136.452 82.679C136.676 82.833 136.956 82.952 137.292 83.036C137.628 83.12 137.957 83.218 138.279 83.33C138.937 83.554 139.462 83.876 139.854 84.296C140.246 84.702 140.442 85.248 140.442 85.934C140.442 86.494 140.295 87.026 140.001 87.53C139.721 88.02 139.287 88.419 138.699 88.727C138.125 89.035 137.39 89.189 136.494 89.189ZM143.64 93.41L145.845 88.517L141.603 79.823H144.9L147.315 85.241L149.751 79.823H152.397L146.475 93.41H143.64ZM157.104 89.189C156.348 89.189 155.641 89.056 154.983 88.79C154.339 88.524 153.793 88.153 153.345 87.677L154.563 86.06C155.011 86.466 155.424 86.76 155.802 86.942C156.194 87.11 156.544 87.194 156.852 87.194C157.216 87.194 157.517 87.138 157.755 87.026C157.993 86.914 158.112 86.732 158.112 86.48C158.112 86.242 158.014 86.053 157.818 85.913C157.636 85.773 157.398 85.661 157.104 85.577C156.81 85.479 156.495 85.381 156.159 85.283C155.319 85.017 154.71 84.632 154.332 84.128C153.968 83.61 153.786 83.05 153.786 82.448C153.786 81.986 153.905 81.524 154.143 81.062C154.395 80.586 154.787 80.194 155.319 79.886C155.865 79.564 156.565 79.403 157.419 79.403C158.189 79.403 158.84 79.48 159.372 79.634C159.904 79.788 160.408 80.04 160.884 80.39L159.771 82.112C159.505 81.902 159.204 81.727 158.868 81.587C158.546 81.433 158.245 81.349 157.965 81.335C157.587 81.321 157.293 81.391 157.083 81.545C156.873 81.685 156.768 81.853 156.768 82.049C156.754 82.315 156.852 82.525 157.062 82.679C157.286 82.833 157.566 82.952 157.902 83.036C158.238 83.12 158.567 83.218 158.889 83.33C159.547 83.554 160.072 83.876 160.464 84.296C160.856 84.702 161.052 85.248 161.052 85.934C161.052 86.494 160.905 87.026 160.611 87.53C160.331 88.02 159.897 88.419 159.309 88.727C158.735 89.035 158 89.189 157.104 89.189ZM164.376 75.791H167.316V79.781H169.542V82.07H167.316V89H164.376V82.07H162.948V79.781H164.376V75.791ZM176.295 89.252C175.175 89.252 174.223 89.042 173.439 88.622C172.669 88.202 172.081 87.621 171.675 86.879C171.269 86.137 171.066 85.283 171.066 84.317C171.066 83.393 171.304 82.56 171.78 81.818C172.256 81.076 172.893 80.488 173.691 80.054C174.489 79.606 175.378 79.382 176.358 79.382C177.674 79.382 178.752 79.767 179.592 80.537C180.446 81.293 180.999 82.392 181.251 83.834L174.531 85.976C174.979 86.494 175.588 86.753 176.358 86.753C176.68 86.753 176.988 86.697 177.282 86.585C177.59 86.473 177.891 86.326 178.185 86.144L179.487 88.328C178.997 88.608 178.465 88.832 177.891 89C177.331 89.168 176.799 89.252 176.295 89.252ZM173.964 84.149C173.964 84.219 173.964 84.282 173.964 84.338L177.996 82.973C177.87 82.623 177.667 82.322 177.387 82.07C177.107 81.804 176.687 81.671 176.127 81.671C175.469 81.671 174.944 81.895 174.552 82.343C174.16 82.791 173.964 83.393 173.964 84.149ZM186.054 79.823L186.264 81.272C186.614 80.67 187.062 80.201 187.608 79.865C188.168 79.529 188.826 79.361 189.582 79.361C190.324 79.361 190.94 79.515 191.43 79.823C191.934 80.117 192.263 80.565 192.417 81.167C192.795 80.621 193.25 80.187 193.782 79.865C194.328 79.529 194.895 79.361 195.483 79.361C196.393 79.361 197.114 79.62 197.646 80.138C198.192 80.642 198.472 81.3 198.486 82.112V89H195.567V83.33C195.553 82.924 195.49 82.595 195.378 82.343C195.266 82.077 195.007 81.93 194.601 81.902C194.125 81.902 193.719 82.07 193.383 82.406C193.061 82.728 192.816 83.148 192.648 83.666C192.494 84.17 192.417 84.695 192.417 85.241V89H189.477V83.33C189.463 82.924 189.386 82.595 189.246 82.343C189.12 82.077 188.854 81.93 188.448 81.902C187.986 81.902 187.594 82.07 187.272 82.406C186.964 82.728 186.726 83.141 186.558 83.645C186.404 84.149 186.327 84.667 186.327 85.199V89H183.387V79.823H186.054ZM204.498 89.189C203.742 89.189 203.035 89.056 202.377 88.79C201.733 88.524 201.187 88.153 200.739 87.677L201.957 86.06C202.405 86.466 202.818 86.76 203.196 86.942C203.588 87.11 203.938 87.194 204.246 87.194C204.61 87.194 204.911 87.138 205.149 87.026C205.387 86.914 205.506 86.732 205.506 86.48C205.506 86.242 205.408 86.053 205.212 85.913C205.03 85.773 204.792 85.661 204.498 85.577C204.204 85.479 203.889 85.381 203.553 85.283C202.713 85.017 202.104 84.632 201.726 84.128C201.362 83.61 201.18 83.05 201.18 82.448C201.18 81.986 201.299 81.524 201.537 81.062C201.789 80.586 202.181 80.194 202.713 79.886C203.259 79.564 203.959 79.403 204.813 79.403C205.583 79.403 206.234 79.48 206.766 79.634C207.298 79.788 207.802 80.04 208.278 80.39L207.165 82.112C206.899 81.902 206.598 81.727 206.262 81.587C205.94 81.433 205.639 81.349 205.359 81.335C204.981 81.321 204.687 81.391 204.477 81.545C204.267 81.685 204.162 81.853 204.162 82.049C204.148 82.315 204.246 82.525 204.456 82.679C204.68 82.833 204.96 82.952 205.296 83.036C205.632 83.12 205.961 83.218 206.283 83.33C206.941 83.554 207.466 83.876 207.858 84.296C208.25 84.702 208.446 85.248 208.446 85.934C208.446 86.494 208.299 87.026 208.005 87.53C207.725 88.02 207.291 88.419 206.703 88.727C206.129 89.035 205.394 89.189 204.498 89.189Z" fill="black"/>
</g>
<defs>
<clipPath id="clip0">
<rect width="293" height="219" fill="white"/>
</clipPath>
</defs>
</svg>
